<?xml version="1.0" encoding="utf-8"?>
<!-- Generator: Adobe Illustrator 26.0.2, SVG Export Plug-In . SVG Version: 6.00 Build 0)  -->
<svg version="1.1" id="Layer_1" xmlns="http://www.w3.org/2000/svg" xmlns:xlink="http://www.w3.org/1999/xlink" x="0px" y="0px"
	 viewBox="0 0 931.7 387.7" style="enable-background:new 0 0 931.7 387.7;" xml:space="preserve">
<style type="text/css">
	.st0{fill:url(#SVGID_1_);}
	.st1{fill:#FFFFFF;}
</style>
<g>
	
		<linearGradient id="SVGID_1_" gradientUnits="userSpaceOnUse" x1="3.099" y1="333.1966" x2="906.6547" y2="331.5859" gradientTransform="matrix(1 0 0 -1 0 455.9261)">
		<stop  offset="0.1209" style="stop-color:#F7007C"/>
		<stop  offset="0.8671" style="stop-color:#07C8F7"/>
	</linearGradient>
	<path class="st0" d="M42.6,234.4c0,0-18.8,0-28.5,0c0-55.8,0-111.3,0-167.2c8.2,0,16.7,0,25.8,0c0,5.4,0,16.3,0,16.3
		s0.8,0.7,1.2,1.1c12.2-16,28.3-22.1,47.6-20.9c19.7,1.2,34.6,9.8,44.4,27.7c1.1-1.4,2.1-2.5,2.8-3.7c13.6-21.2,34.2-26.6,57.3-23.9
		c32.6,3.7,53.2,27.1,54.1,61.7c0.9,34.9,0.4,69.8,0.5,104.7c0,0.8-0.2,1.5-0.4,1.7h-29.5c-0.1-1-0.3-2.8-0.3-4.5
		c-0.2-29.9,0.1-59.8-0.7-89.7c-0.3-9.5-2.1-19.5-5.5-28.4c-4.9-13-17.9-19.4-32.6-18.4c-15.7,1-25.5,8-29.3,22.7
		c-2.4,9.4-3.6,19.2-3.7,28.9c-0.4,27.9,0,55.8,0,83.8c0,2.1,0,6.9,0,6.9H116c0,0,0-4.7,0-6.9c-0.1-27.5,0.3-55.1-0.4-82.6
		c-0.3-10.2-1.9-20.7-4.8-30.5C106.6,98.7,96.6,92,81.5,91.3c-15.5-0.7-27.1,6.1-33.2,19.6C42.8,123,42.2,136,42.2,149
		c-0.1,25.7,0.2,51.4,0.3,77.2C42.6,228.3,42.6,234.4,42.6,234.4z M653.6,78.8c-28-23.7-72.3-25.7-101.8-3.6
		c-30.1,22.6-40.7,53.5-34.2,89.8c5.5,31.1,23.4,53.5,53.5,64.4c30.3,11,58.9,7.7,84-14.1c1.1-0.9,2.3-1.7,3.2-3.3v18.7
		c0,0,22.2,0,32,0c0-73.7,0-147,0-220c-10.6,0-20.5,0-30.7,0c0,24.3,0,72.9,0,72.9S655.1,80,653.6,78.8z M604,89.4
		c30.9-0.1,57.1,27.5,56.8,59.8c-0.3,30.4-27.1,57.6-56.2,57.3c-32.2-0.4-57.5-26.6-57.4-59.7C547.3,115.2,572.7,89.5,604,89.4z
		 M883.6,176.2c-4.3-0.2-6.6,1.2-9.1,4.8c-12.4,18.7-34.8,26.9-57.3,21.4c-21-5.1-38-24-40.4-45.5c23.4,0,46.7,0,70,0
		c23.2,0,46.5,0,70.7,0c-0.9-10.6-1.3-19.8-2.6-28.8c-8.4-55.9-70.8-88.5-121.6-63.7c-38.8,19-58.1,64.8-45.1,107.5
		c12.9,42.7,51.5,67.6,95.7,61.7c29.6-4,55.9-24.9,67.1-57.3C901.9,176.3,892.8,176.5,883.6,176.2z M837.9,87.1
		c21.6,1.8,43.4,22.4,44.8,42.7c-34.9,0-69.7,0-104.8,0C784.4,101.6,808.3,84.7,837.9,87.1z M378.9,26.2
		c-43.6-6.6-77.2,22.3-77.2,66.3c0,43.7,34.8,86.2,77.7,94.9c45.7,9.3,82-19.2,82.3-64.5C461.9,76.7,424.6,33.1,378.9,26.2z
		 M424.4,87.1c8.3,12.8,12,27,8.6,42.2c-5,22.4-26.6,35.3-50.6,30.6c-28.2-5.5-53.4-36.4-53.1-65.1c0.2-23.8,18.7-41.9,46.5-41.4
		C395.4,55,412,68,424.4,87.1z M297.2,220.5c62.5,21.5,125.1,21.9,187.5-1.6c-62.4-23.3-124.9-23.2-187.4-1.5
		C297.3,218.4,297.2,219.4,297.2,220.5z"/>
	<g>
		<path class="st1" d="M368.7,337.4v38.2H359v-35.1c0-11.7-6.5-18.6-17.9-18.6c-10.4,0-18.9,7.2-18.9,18.9v34.8h-9.7v-35.1
			c0-11.7-6.5-18.6-17.8-18.6c-10.4,0-18.9,7.2-18.9,18.9v34.8H266v-61.7h9.6v8.8c5-7.4,13.2-10,20.8-10c10.8,0,19.2,4.9,23.1,13
			c5-9.6,14.6-13,23.3-13C358.2,312.7,368.7,322.5,368.7,337.4z"/>
		<path class="st1" d="M451,344.8c0,18.3-13.9,32.1-32.5,32.1s-32.4-13.8-32.4-32.1c0-18.2,13.9-32.1,32.4-32.1S451,326.5,451,344.8
			z M396,344.8c0,13.4,9.7,23,22.5,23s22.5-9.6,22.5-23c0-13.3-9.8-22.9-22.5-22.9C405.7,321.8,396,331.5,396,344.8z"/>
		<path class="st1" d="M532.2,344.8c0,18.6-13.5,32.1-30.8,32.1c-10.2,0-17.6-4.1-22.5-10.4v9.1h-9.8v-93.8h9.8V323
			c4.9-6.3,12.3-10.4,22.5-10.4C518.7,312.7,532.2,326.3,532.2,344.8z M478.3,344.8c0,13.1,9.1,23,22,23c13.2,0,22-10.2,22-23
			c0-12.7-8.9-22.9-22-22.9C487.3,321.8,478.3,331.7,478.3,344.8z"/>
		<path class="st1" d="M562.1,292.1c0,3.9-3.1,6.8-6.9,6.8c-3.9,0-6.8-2.9-6.8-6.8s2.9-6.9,6.8-6.9
			C559.1,285.2,562.1,288.2,562.1,292.1z M560.1,375.7h-9.8V314h9.8V375.7z"/>
		<path class="st1" d="M592.7,375.7h-9.8v-93.8h9.8V375.7z"/>
		<path class="st1" d="M670.4,344.6c0,1.2-0.1,2.5-0.2,3.6h-49.5c1.4,13.3,10.7,20.1,21.8,20.1c7.6,0,14.3-2.9,19.5-7.8l5.2,6.6
			c-7.7,7.4-16.3,9.6-25.3,9.6c-18.2,0-31.2-13-31.2-32.1c0-18.9,13-32.1,30.6-32.1C658.2,312.7,670.3,325.8,670.4,344.6z
			 M620.9,340.3h39.6c-1.2-11.5-8.8-19-19.3-19C629.8,321.4,622.5,329.2,620.9,340.3z"/>
	</g>
</g>
</svg>
